<mxfile host="app.diagrams.net" modified="2023-11-02T01:23:40.410Z" agent="Mozilla/5.0 (Windows NT 10.0; Win64; x64; rv:109.0) Gecko/20100101 Firefox/119.0" version="22.0.8" etag="iJZM8mZvvmxEr5sYXdhd" type="github">
  <diagram name="Page-1" id="ytAer-YRtg10v5FXhOON">
    <mxGraphModel>
      <root>
        <mxCell id="0" />
        <mxCell id="1" parent="0" />
      </root>
    </mxGraphModel>
  </diagram>
</mxfile>
